<svg xmlns="http://www.w3.org/2000/svg" width="144.922" height="64.46" viewBox="0 0 144.922 64.46"><g transform="translate(-300.613 -263.991)"><g transform="translate(303.158 293.998)"><path d="M338.121,381.673a.324.324,0,0,0,.117-.049.139.139,0,0,0,.034-.038.161.161,0,0,0,.011-.027.046.046,0,0,0,0-.031.128.128,0,0,0,0-.043C338.234,381.547,338.179,381.608,338.121,381.673ZM313.934,371.7l-.2-.156a.253.253,0,0,0,.011.047.166.166,0,0,0,.119.124.2.2,0,0,0,.036.009l.032,0v0h.038Zm-1.31-.988c-.061-.056-.122-.11-.18-.166h.013a.011.011,0,0,0-.007,0,.218.218,0,0,0-.029-.018s0,0-.007,0,0,.018,0,.025a.172.172,0,0,0,.061.106l.025.023a.366.366,0,0,0,.11.04l.011,0Zm-.4-.347a.286.286,0,0,0,.009.045l.014-.007Zm-2.661-2.019h-.007l.009.007S309.561,368.348,309.561,368.346Zm-1.029-.824h-.011a.058.058,0,0,0,.014.011A.1.1,0,0,0,308.533,367.522Zm2.549,2h-.007l.009.007S311.081,369.528,311.081,369.525Zm-3.008-17.953c-.013.038-.023.065-.032.095l.059-.023C308.094,351.624,308.085,351.606,308.073,351.572Z" transform="translate(-308.042 -351.572)" fill="#fff"/><path d="M370.529,439.066a.325.325,0,0,1-.117-.049.139.139,0,0,1-.034-.038.168.168,0,0,1-.011-.027.047.047,0,0,1,0-.032.129.129,0,0,1,0-.043C370.416,438.94,370.47,439,370.529,439.066Z" transform="translate(-349.009 -408.965)" fill="#fff"/><path d="M309.455,398.136a.058.058,0,0,1-.014-.011h.011A.106.106,0,0,1,309.455,398.136Z" transform="translate(-308.962 -382.175)" fill="#fff"/><path d="M312.467,400.537v0s-.007,0-.009-.009h.007S312.467,400.535,312.467,400.537Z" transform="translate(-310.945 -383.756)" fill="#fff"/><path d="M316.9,403.98l-.009-.007h.007S316.9,403.978,316.9,403.98Z" transform="translate(-313.861 -386.02)" fill="#fff"/><path d="M320.267,406.462l-.014.007a.3.3,0,0,1-.009-.045Z" transform="translate(-316.063 -387.631)" fill="#fff"/><path d="M320.858,406.907h-.016c-.007-.009-.013-.013-.02-.023a.221.221,0,0,1,.029.018A.011.011,0,0,1,320.858,406.907Z" transform="translate(-316.443 -387.933)" fill="#fff"/><path d="M321.4,407.438l-.011,0h.009Z" transform="translate(-316.815 -388.296)" fill="#fff"/><path d="M324.693,409.9l-.016.013a.257.257,0,0,1-.011-.047Z" transform="translate(-318.97 -389.894)" fill="#fff"/><path d="M325.278,410.35h-.013c-.009-.009-.018-.02-.027-.029Z" transform="translate(-319.346 -390.193)" fill="#fff"/><path d="M312.467,400.537l-.009-.007h.007S312.467,400.535,312.467,400.537Z" transform="translate(-310.945 -383.756)" fill="#fff"/><path d="M316.9,403.98l-.009-.007h.007S316.9,403.978,316.9,403.98Z" transform="translate(-313.861 -386.02)" fill="#fff"/><path d="M321.4,407.438l-.011,0h.009Z" transform="translate(-316.815 -388.296)" fill="#fff"/><path d="M316.9,403.98l-.009-.007h.007S316.9,403.978,316.9,403.98Z" transform="translate(-313.861 -386.02)" fill="#fff"/><path d="M309.455,398.136a.058.058,0,0,1-.014-.011h.011A.106.106,0,0,1,309.455,398.136Z" transform="translate(-308.962 -382.175)" fill="#fff"/><path d="M312.467,400.537v0s-.007,0-.009-.009h.007S312.467,400.535,312.467,400.537Z" transform="translate(-310.945 -383.756)" fill="#fff"/><path d="M309.455,398.136a.058.058,0,0,1-.014-.011h.011A.106.106,0,0,1,309.455,398.136Z" transform="translate(-308.962 -382.175)" fill="#fff"/><path d="M320.267,406.462l-.014.007a.3.3,0,0,1-.009-.045Z" transform="translate(-316.063 -387.631)" fill="#fff"/><path d="M320.845,406.9h-.016a.07.07,0,0,1-.022,0c0-.007,0-.016,0-.025s0,0,.007,0a.219.219,0,0,1,.029.018S320.843,406.9,320.845,406.9Z" transform="translate(-316.43 -387.925)" fill="#fff"/><path d="M321.014,407.067l-.011,0a.367.367,0,0,1-.11-.04l-.025-.023a.172.172,0,0,1-.061-.106c0-.007,0-.016,0-.025s0,0,.007,0,.014.014.02.023h0c.059.056.119.11.18.166Z" transform="translate(-316.43 -387.925)" fill="#fff"/><path d="M324.9,410.052h-.038a.13.13,0,0,1-.032,0,.2.2,0,0,1-.036-.009.166.166,0,0,1-.119-.124.257.257,0,0,1-.011-.047l.2.156Z" transform="translate(-318.97 -389.894)" fill="#fff"/><path d="M325.24,410.35v0a.124.124,0,0,1,0-.027c.009.009.018.02.027.029Z" transform="translate(-319.346 -390.193)" fill="#fff"/><path d="M308.1,351.644l-.059.023c.009-.029.018-.057.032-.095C308.085,351.606,308.094,351.624,308.1,351.644Z" transform="translate(-308.042 -351.572)" fill="#fff"/></g><g transform="translate(366.655 263.991)"><path d="M517.838,264.819a2.4,2.4,0,0,0-1.75-.714,2.367,2.367,0,0,0-1.724.714,2.325,2.325,0,0,0-.726,1.721,2.442,2.442,0,0,0,2.45,2.436,2.4,2.4,0,0,0,1.75-.714,2.4,2.4,0,0,0,0-3.443Zm-6.552-.029a2.438,2.438,0,1,0,.714,1.722A2.368,2.368,0,0,0,511.286,264.79Z" transform="translate(-502.4 -264.047)" fill="#fff"/><path d="M579.552,264.714a2.477,2.477,0,0,0-3.5,0,2.436,2.436,0,0,0,0,3.463,2.488,2.488,0,0,0,3.5-.009,2.4,2.4,0,0,0,0-3.455Zm-6.584.02a2.452,2.452,0,0,0-4.186,1.736,2.322,2.322,0,0,0,.717,1.713,2.488,2.488,0,0,0,3.478,0,2.421,2.421,0,0,0-.009-3.449Z" transform="translate(-542.945 -263.991)" fill="#fff"/><path d="M699.528,281.313a2.477,2.477,0,0,0-3.5,0,2.446,2.446,0,0,0,0,3.472,2.476,2.476,0,0,0,4.23-1.745A2.341,2.341,0,0,0,699.528,281.313Zm-6.523,0a2.446,2.446,0,1,0,.723,1.727A2.376,2.376,0,0,0,693,281.313Z" transform="translate(-621.846 -274.903)" fill="#fff"/><path d="M565.918,287.214v1.605l1.434-.438v3.414H549.5q-2.465-7.5-6.546-7.5a3.984,3.984,0,0,0-3.9,2.947l2.055,3.617h1.158c.166-1.184.624-1.78,1.376-1.78q1.506,0,3,2.714H530.971V279.573q-6.244,1.838-8.242,3.6a4.98,4.98,0,0,0-2,3.675q0,3.2,4.041,3.208h1.71v1.722H514.851v.014h-5.214V279.66q-6.1,1.72-8.212,3.58t-2.116,3.6a2.917,2.917,0,0,0,1.036,2.436,3.966,3.966,0,0,0,2.528.816h2.317v6.038q0,.889-1.347,2.035a4.085,4.085,0,0,1-1.87,1.144,3.814,3.814,0,0,1-1.338-.81,13.608,13.608,0,0,1-1.559-1.327,1.611,1.611,0,0,1-.491-1.129v-4.566h-1.158l-4.041,4.45-.014.758h1.158q.013,2.565,3.295,4.906t4.09,2.343q1.045,0,3.585-1.765a14.471,14.471,0,0,0,3.338-2.88,4.489,4.489,0,0,0,.8-2.6h5.588v-.014h15.282v.014h18.466c.2.514.4,1,.6,1.466s.462.691.81.691c.473,0,.711-.284.711-.859a4.242,4.242,0,0,0-.073-.5,5.49,5.49,0,0,1-.116-.8h21.32V285.274Zm-60.728-.435h-.784c-.906,0-1.362-.27-1.362-.8q0-1.224,2.146-1.852Zm21.32-.061h-.853c-.871,0-1.3-.281-1.3-.845q0-1.063,2.157-1.794Z" transform="translate(-493.371 -274.234)" fill="#fff"/></g><g transform="translate(366.624 298.716)"><path d="M497.025,367.295H493.28v-1.362H502.4v1.362h-3.764v11.038h-1.608Z" transform="translate(-493.28 -365.731)" fill="#fff"/><path d="M520.093,374.432l-1.279,3.9h-1.645l4.185-12.4h1.919l4.2,12.4h-1.7l-1.316-3.9Zm4.038-1.251-1.206-3.569c-.274-.809-.457-1.545-.64-2.263h-.036c-.183.736-.384,1.49-.621,2.245l-1.206,3.587Z" transform="translate(-508.984 -365.731)" fill="#fff"/><path d="M554.116,365.933v5.188h5.957v-5.188h1.608v12.4h-1.608v-5.813h-5.957v5.813h-1.59v-12.4Z" transform="translate(-532.227 -365.731)" fill="#fff"/><path d="M587.5,374.432l-1.279,3.9h-1.645l4.184-12.4h1.919l4.2,12.4h-1.7l-1.316-3.9Zm4.038-1.251-1.206-3.569c-.275-.809-.457-1.545-.64-2.263h-.037c-.183.736-.383,1.49-.621,2.245l-1.206,3.587Z" transform="translate(-553.296 -365.731)" fill="#fff"/><path d="M627.888,379.766c-1.663-.441-3.289-.938-4.714-1.435a2.341,2.341,0,0,0-.749-.184c-2.924-.11-5.427-2.281-5.427-6.273,0-3.974,2.412-6.531,5.738-6.531,3.344,0,5.518,2.612,5.518,6.273,0,3.183-1.462,5.225-3.508,5.942v.074c1.224.312,2.558.607,3.6.791Zm-1.316-8.076c0-2.483-1.279-5.041-3.892-5.041-2.686,0-4,2.5-3.983,5.188-.018,2.631,1.425,5,3.91,5C625.147,376.841,626.573,374.523,626.573,371.69Z" transform="translate(-574.61 -365.343)" fill="#fff"/><path d="M664.995,371.616c0,4.268-2.576,6.531-5.719,6.531-3.253,0-5.537-2.539-5.537-6.292,0-3.937,2.431-6.512,5.72-6.512C662.821,365.343,664.995,367.937,664.995,371.616Zm-9.557.2c0,2.649,1.426,5.022,3.929,5.022,2.522,0,3.947-2.336,3.947-5.151,0-2.465-1.279-5.041-3.929-5.041C656.754,366.649,655.438,369.1,655.438,371.818Z" transform="translate(-598.763 -365.343)" fill="#fff"/><path d="M701.372,379.766c-1.663-.441-3.289-.938-4.714-1.435a2.341,2.341,0,0,0-.749-.184c-2.924-.11-5.427-2.281-5.427-6.273,0-3.974,2.412-6.531,5.738-6.531,3.344,0,5.518,2.612,5.518,6.273,0,3.183-1.462,5.225-3.508,5.942v.074c1.224.312,2.558.607,3.6.791Zm-1.316-8.076c0-2.483-1.279-5.041-3.892-5.041-2.686,0-4,2.5-3.983,5.188-.018,2.631,1.425,5,3.91,5C698.631,376.841,700.057,374.523,700.057,371.69Z" transform="translate(-622.918 -365.343)" fill="#fff"/></g><g transform="translate(300.613 264.196)"><path d="M427.462,355.053V319.786a1.071,1.071,0,0,1,1.071-1.071h10.515a1.037,1.037,0,0,1,1.037,1.037V344.4a2.108,2.108,0,0,1-.831,1.678Z" transform="translate(-384.002 -300.171)" fill="#fff"/><path d="M391.978,329.09V264.963h23.25a1.53,1.53,0,0,1,1.53,1.53v9.336a1.572,1.572,0,0,1-1.572,1.572h-15.36a1.716,1.716,0,0,0-1.716,1.716v45.244Z" transform="translate(-360.675 -264.835)" fill="#fff"/><path d="M313.236,354.68V319.413a1.071,1.071,0,0,0-1.071-1.07H301.65a1.037,1.037,0,0,0-1.037,1.037v24.646a2.109,2.109,0,0,0,.832,1.678Z" transform="translate(-300.613 -299.926)" fill="#fff"/><path d="M325.393,328.717V264.59h-23.25a1.53,1.53,0,0,0-1.53,1.531v9.336a1.572,1.572,0,0,0,1.572,1.572h15.36a1.716,1.716,0,0,1,1.716,1.716v45.243Z" transform="translate(-300.613 -264.59)" fill="#fff"/></g></g></svg>