<svg xmlns="http://www.w3.org/2000/svg" width="57.381" height="34.835" viewBox="0 0 57.381 34.835"><path d="M177.19,320.192c4.4,0,8.792-.011,13.188,0a17.4,17.4,0,0,1,2.982,34.571,20.762,20.762,0,0,1-3.12.245q-13.508.028-27.016.01a4.467,4.467,0,0,1-.7-.027,2.048,2.048,0,0,1,.027-4.053c.084-.013.171-.009.255-.018a1.041,1.041,0,0,0,1.045-1.063,1.026,1.026,0,0,0-1.123-.98c-2.006-.011-4.012.006-6.018-.01a2.069,2.069,0,0,1-2.045-1.694,2.008,2.008,0,0,1,1.182-2.195,3.005,3.005,0,0,1,1.118-.2q7.906-.018,15.812-.008c1.194,0,1.552-.513,1.214-1.669-.245-.837-.437-1.69-.641-2.539a1.013,1.013,0,0,0-1.158-.929c-2.39.007-4.78.016-7.17.011a2.052,2.052,0,1,1,.02-4.093c2.113-.008,4.225,0,6.338,0,.085,0,.171,0,.256,0,1.454.114,1.525.045,1.82-1.4.144-.708.341-1.407.545-2.1.316-1.075-.06-1.616-1.171-1.617q-7.874,0-15.748,0a3.938,3.938,0,0,1-.827-.052,2.04,2.04,0,0,1,.4-4.035c1.92-.023,3.841-.007,5.762-.009a2.8,2.8,0,0,0,.574-.021,1.018,1.018,0,0,0,.057-2,2.363,2.363,0,0,0-.381-.036,2.046,2.046,0,0,1,.184-4.085c2.134-.018,4.268-.006,6.4-.006Zm13.349,4.1a13.315,13.315,0,1,0,13.265,13.3A13.318,13.318,0,0,0,190.539,324.293Z" transform="translate(-150.539 -320.188)" fill="#407590"/><path d="M133.762,414.049c-.384,0-.769.023-1.151,0a2.054,2.054,0,0,1-1.9-2.046,2.028,2.028,0,0,1,1.909-2.029c.766-.039,1.536-.036,2.3,0a2.043,2.043,0,0,1-.011,4.08c-.382.022-.768,0-1.151,0Z" transform="translate(-130.714 -394.588)" fill="#407590"/><path d="M338.51,379.389c-1.008,0-1.924.007-2.839,0-1.07-.01-1.5-.674-1.068-1.659,1.3-2.943,2.613-5.879,3.915-8.82.243-.549.617-.9,1.24-.753s.81.61.806,1.214c-.012,1.941,0,3.881,0,5.923.906,0,1.792,0,2.678,0,1.3,0,1.694.611,1.166,1.8-1.268,2.863-2.549,5.721-3.812,8.586-.247.562-.582.958-1.25.853-.565-.089-.829-.529-.83-1.32C338.509,383.3,338.51,381.382,338.51,379.389Z" transform="translate(-299.585 -359.922)" fill="#407590"/></svg>