<svg xmlns="http://www.w3.org/2000/svg" width="32.427" height="36.417" viewBox="0 0 32.427 36.417"><g transform="translate(132.115 -62.47)"><g transform="translate(-132.115 62.47)"><path d="M-70.475,62.47c.6.119,1.21.206,1.8.362a10.11,10.11,0,0,1,7.386,8.635.814.814,0,0,0,.221.45,2.184,2.184,0,0,1,.682,1.587q0,2.612,0,5.224a2.206,2.206,0,0,1-.634,1.536.763.763,0,0,0-.2.481,6.614,6.614,0,0,1-.653,3.343,6.1,6.1,0,0,1-5.536,3.475c-1.219.035-2.44.009-3.66.005a1.247,1.247,0,0,1-1.339-1.252,1.236,1.236,0,0,1,1.328-1.262c1.161-.008,2.322.006,3.482,0a3.688,3.688,0,0,0,3.759-2.982,9.262,9.262,0,0,0,.084-1.486.358.358,0,0,0-.09-.217c-.152-.18-.316-.348-.492-.538-.179.4-.327.806-.54,1.178a16.5,16.5,0,0,1-1.012,1.581,1.955,1.955,0,0,1-1.673.78c-1.078,0-2.157.026-3.234-.008a3.12,3.12,0,0,0-2.863,1.384A8.321,8.321,0,0,1-78.316,79.8l-.224.275a2.108,2.108,0,0,1-2.311.657,2.067,2.067,0,0,1-1.414-1.9c-.017-1.812-.012-3.625,0-5.437a2.1,2.1,0,0,1,.65-1.455.894.894,0,0,0,.246-.475,10.116,10.116,0,0,1,8.955-8.934,1.562,1.562,0,0,0,.235-.062Zm6.1,10.008a5.771,5.771,0,0,0,.426-.519.65.65,0,0,0,.126-.4,7.552,7.552,0,0,0-7.377-6.556A7.576,7.576,0,0,0-78.84,71.6a.439.439,0,0,0,.061.289c.154.2.335.39.5.583,1.377-2.978,3.422-5.154,6.929-5.161C-67.823,67.3-65.764,69.478-64.38,72.478Z" transform="translate(87.549 -62.47)" fill="#407590"/><path d="M-105.616,274.012a11.666,11.666,0,0,1,3.162,2.67A11.983,11.983,0,0,1-99.7,285.12a1.832,1.832,0,0,1-1.907,1.76c-2.357.005-4.714,0-7.072,0-6.989,0-13.978-.029-20.966.021a2.144,2.144,0,0,1-2.467-2.493,12.013,12.013,0,0,1,3.963-8.952,11.691,11.691,0,0,1,5.051-2.7.513.513,0,0,1,.564.144,9.654,9.654,0,0,0,3.8,2.356.666.666,0,0,1,.34.308,2.8,2.8,0,0,0,2.487,1.69,45.048,45.048,0,0,0,4.651-.046,7.547,7.547,0,0,0,5.433-2.935Z" transform="translate(132.115 -250.486)" fill="#407590"/></g></g></svg>