<svg xmlns="http://www.w3.org/2000/svg" width="40.974" height="31.091" viewBox="0 0 40.974 31.091"><g transform="translate(-213.961 -619.101)"><g transform="translate(213.961 619.101)"><path d="M213.961,628.9c.92,0,1.84.014,2.759,0a5.132,5.132,0,0,1,2.756.679,1.074,1.074,0,0,0,.168.061c.1-.416.219-.81.287-1.212.015-.09-.119-.237-.219-.309a15.5,15.5,0,0,1-1.651-1.177,4.707,4.707,0,0,1-.975-5.38c.393-.826.886-1.6,1.363-2.456,1.092.661,2.2,1.227,3.19,1.953a4.71,4.71,0,0,1,1.531,5.555,19.272,19.272,0,0,0-1.186,3.634,12.628,12.628,0,0,0,24.466,6.006,12.114,12.114,0,0,0-.365-8.707,6.315,6.315,0,0,1-.7-3,4.66,4.66,0,0,1,2.135-3.7c.922-.606,1.9-1.126,2.858-1.686.04.024.085.035.1.063.437.762.915,1.5,1.3,2.294a4.808,4.808,0,0,1-1.646,6.02c-.1.067-.2.129-.3.194-.3.192-.809.346-.852.584a3.985,3.985,0,0,0,.257,1.371c1.785-1.18,3.747-.656,5.69-.8-.07,1.446.225,2.874-.4,4.215a4.753,4.753,0,0,1-4.5,2.95c-.33.008-.74-.087-.967.073-.208.146-.217.574-.314.877-.044.137-.087.275-.144.457,2.135-.156,3.564,1.311,5.31,2.121-1.006,1.871-1.879,3.791-4.206,4.316a4.941,4.941,0,0,1-3.793-.651c-.659-.4-.665-.388-1.234.135-.156.144-.315.285-.516.467,1.925.944,2.444,2.929,3.554,4.532-1.415.745-2.631,1.8-4.3,1.8a4.793,4.793,0,0,1-4.326-2.4c-.182-.292-.3-.726-.558-.841s-.657.086-.993.156a14.891,14.891,0,0,1-6.849-.159.41.41,0,0,0-.563.245,5.121,5.121,0,0,1-2.7,2.65,4.617,4.617,0,0,1-3.873-.116c-.8-.393-1.555-.866-2.38-1.331,1.1-1.607,1.622-3.587,3.539-4.53-.323-.308-.6-.6-.906-.849a.426.426,0,0,0-.37-.016c-.3.14-.579.328-.874.482a4.816,4.816,0,0,1-6.366-1.742c-.419-.678-.8-1.377-1.2-2.063a10.858,10.858,0,0,1,5.275-2.238c-.123-.411-.228-.822-.377-1.216-.032-.085-.225-.153-.344-.154a6.434,6.434,0,0,1-2.4-.3,4.824,4.824,0,0,1-3.1-3.676,1.7,1.7,0,0,0-.078-.218Z" transform="translate(-213.961 -619.101)" fill="#407590"/><path d="M321.343,668.314a10.078,10.078,0,1,1,10.09-10.054A10.083,10.083,0,0,1,321.343,668.314Zm-1.168-14.058a1.7,1.7,0,0,1-1.6,1.773v2.419l1.6-.32v4.081h2.349v-7.953Z" transform="translate(-300.873 -645.052)" fill="#407590"/></g></g></svg>