<svg xmlns="http://www.w3.org/2000/svg" width="33.947" height="38.543" viewBox="0 0 33.947 38.543"><g transform="translate(419.964 -564.441)"><g transform="translate(-419.964 564.441)"><path d="M-401.922,564.441c.816.123,1.648.183,2.446.38,7.057,1.748,11.418,6.185,13.109,13.247a12.743,12.743,0,0,1,.245,1.635c.056.535.068,1.075.105,1.7a4.494,4.494,0,0,0-.512-.325c-.5-.224-1-.452-1.519-.635-.221-.078-.315-.159-.338-.4A14.408,14.408,0,0,0-391,572.934a14.518,14.518,0,0,0-6.788-5.272,14.307,14.307,0,0,0-6.649-.879A14.356,14.356,0,0,0-412.21,570a14.471,14.471,0,0,0-4.883,7.46c-.239.852-.321,1.747-.488,2.62a.462.462,0,0,1-.184.31c-.705.3-1.421.585-2.2.9.095-.9.124-1.853.3-2.776a16.75,16.75,0,0,1,9.969-12.673,15.442,15.442,0,0,1,5.333-1.336,2.764,2.764,0,0,0,.329-.064Z" transform="translate(419.964 -564.441)" fill="#407590"/><path d="M-269.14,750.418c1.293,0,2.574.048,3.85-.013a3.2,3.2,0,0,0,2.9-2.26,9.038,9.038,0,0,1-1.717-.1,3.272,3.272,0,0,1-2.562-3.255c-.027-3.061-.043-6.123,0-9.183a3.353,3.353,0,0,1,5.144-2.873,3.2,3.2,0,0,1,1.612,2.885c.017,3.864.038,7.729-.008,11.593a5.6,5.6,0,0,1-5.471,5.47c-1.154.029-2.308.013-3.463,0a.389.389,0,0,0-.417.271,3.349,3.349,0,0,1-3.783,1.91,3.419,3.419,0,0,1-2.657-3.24,3.414,3.414,0,0,1,2.6-3.357,3.381,3.381,0,0,1,3.788,1.775C-269.252,750.17-269.2,750.3-269.14,750.418Z" transform="translate(289.308 -716.404)" fill="#407590"/><path d="M-365,740.237c0,1.48.007,2.96,0,4.44a3.4,3.4,0,0,1-2.237,3.285,3.352,3.352,0,0,1-4.523-3.156c-.047-3.072-.053-6.147,0-9.219a3.348,3.348,0,0,1,5.128-2.856A3.271,3.271,0,0,1-365,735.722C-364.993,737.227-365,738.732-365,740.237Z" transform="translate(376.342 -716.408)" fill="#407590"/><path d="M-417.265,758.571v10.99a3.085,3.085,0,0,1-1.94-1.727,4.246,4.246,0,0,1-.338-1.521c-.043-1.5-.024-3.009-.013-4.513A3.3,3.3,0,0,1-417.265,758.571Z" transform="translate(419.607 -740.266)" fill="#407590"/><path d="M-84.483,769.37V758.379a3.224,3.224,0,0,1,1.688,1.265,3.3,3.3,0,0,1,.6,1.942c0,1.53.012,3.059,0,4.589A3.3,3.3,0,0,1-84.483,769.37Z" transform="translate(116.116 -740.092)" fill="#407590"/></g></g></svg>