<svg xmlns="http://www.w3.org/2000/svg" width="37.525" height="37.525" viewBox="0 0 37.525 37.525"><g transform="translate(1029.065 342.886)"><g transform="translate(-1029.065 -342.886)"><path d="M-1029.064-324.092a18.2,18.2,0,0,1,5.119-12.926A18.286,18.286,0,0,1-1010-342.885a18.734,18.734,0,0,1,18.457,18.765,18.759,18.759,0,0,1-18.59,18.758A18.743,18.743,0,0,1-1029.064-324.092Zm.66-.047a17.941,17.941,0,0,0,5.289,12.782,17.588,17.588,0,0,0,12.773,5.324,18.052,18.052,0,0,0,18.117-18.694,17.382,17.382,0,0,0-5.7-12.583,17.6,17.6,0,0,0-12.924-4.909A18.1,18.1,0,0,0-1028.4-324.139Z" transform="translate(1029.065 342.886)" fill="#407590"/><path d="M-903.305-204.236a12.69,12.69,0,0,1-9.021-3.639,12.54,12.54,0,0,1-3.959-9.035,12.572,12.572,0,0,1,3.5-9.147,12.5,12.5,0,0,1,9.121-4.114,12.934,12.934,0,0,1,13.307,12.758,12.685,12.685,0,0,1-3.712,9.309A12.608,12.608,0,0,1-903.305-204.236Zm-3.517-9.248a4.772,4.772,0,0,0,.5.256,5.144,5.144,0,0,0,2.711.4,3.292,3.292,0,0,0,1.7-.691,2.583,2.583,0,0,0,.838-1.558,2.42,2.42,0,0,0-.337-1.732,3.331,3.331,0,0,0-2.114-1.439c-.8-.219-1.594-.465-2.382-.724-.127-.042-.212-.211-.316-.321.122-.1.24-.2.369-.288.036-.025.1-.013.151-.008.269.026.541.037.806.086a2.705,2.705,0,0,1,1.738.98.477.477,0,0,0,.324.15c.409.017.819,0,1.228.01.249.008.339-.1.337-.333,0-.452,0-.9,0-1.357,0-.332-.012-.664-.019-1,0-.209-.094-.292-.318-.28-.374.021-.75.005-1.126.005s-.369,0-.407.355c0,.013-.022.023-.036.038a.266.266,0,0,1-.071-.01.678.678,0,0,1-.112-.061,3.694,3.694,0,0,0-1.987-.547,5.6,5.6,0,0,0-1.511.154,2.381,2.381,0,0,0-1.883,1.835,2.5,2.5,0,0,0,1.379,2.963,21.063,21.063,0,0,0,2.2.776c.449.154.9.3,1.347.461a.26.26,0,0,1,.132.21.274.274,0,0,1-.172.177,2.794,2.794,0,0,1-3.114-1.05.4.4,0,0,0-.288-.15c-.409-.017-.819,0-1.228-.009-.18,0-.269.064-.268.253q0,1.369,0,2.739c0,.155.064.209.215.207.384-.006.768,0,1.152,0C-906.892-212.984-906.892-212.983-906.823-213.484Zm5.9-3.659a5.014,5.014,0,0,0,.313,1.945,3.383,3.383,0,0,0,1.872,1.956,5.355,5.355,0,0,0,3.71.256,3.426,3.426,0,0,0,2.751-3.051,6.249,6.249,0,0,0-.068-2.612,3.361,3.361,0,0,0-.593-1.368,4.36,4.36,0,0,0-3.186-1.541,5.46,5.46,0,0,0-2.135.242,3.477,3.477,0,0,0-2.27,1.935A5.425,5.425,0,0,0-900.919-217.143Zm-9.358,2.031a.788.788,0,0,1-.033-.146c0-1.28,0-2.56,0-3.84,0-.16.074-.206.22-.2a6.442,6.442,0,0,0,.741-.016c.078-.008.208-.111.21-.174.018-.58.012-1.16.016-1.74,0-.184-.074-.25-.264-.246-.537.011-1.075,0-1.613,0h-3.072c-.138,0-.278-.017-.276.2.006.589,0,1.178,0,1.766,0,.142.063.2.2.2.213,0,.427.011.64-.005.228-.018.311.051.308.3-.012,1.22-.005,2.441-.006,3.661,0,.074-.011.147-.02.245-.3,0-.579.009-.858,0-.2-.009-.272.052-.267.26q.02.806,0,1.613c0,.2.06.263.262.262q2.342-.011,4.685,0c.211,0,.286-.062.281-.277-.013-.537-.015-1.075,0-1.612,0-.2-.076-.25-.255-.245C-909.68-215.105-909.977-215.112-910.277-215.112Zm3.98,3.676c-.462.169-.91.344-1.368.49a.357.357,0,0,1-.291-.127c-.255-.319-.494-.651-.726-.988a.317.317,0,0,0-.427-.093.449.449,0,0,0,.033.29,7.207,7.207,0,0,0,.449.682c.416.568.415.559-.2.912a.35.35,0,0,1-.474-.061,9.632,9.632,0,0,1-1.517-1.721.3.3,0,0,0-.423-.1c-.034.018-.012.238.045.324a9.4,9.4,0,0,0,3.094,2.918,9,9,0,0,0,2.972,1.094,9.125,9.125,0,0,0,3.478-.053,8.568,8.568,0,0,0,2.249-.809,9.469,9.469,0,0,0,3.293-2.887,5.563,5.563,0,0,0,.317-.555.41.41,0,0,0-.579.137c-.369.467-.742.933-1.154,1.361-.469.487-.488.469-1.066.131-.306-.179-.3-.175-.089-.469q.335-.465.65-.946c.04-.062.064-.208.037-.226a.352.352,0,0,0-.26-.049.494.494,0,0,0-.234.173c-.223.29-.441.584-.646.886a.328.328,0,0,1-.453.135c-.337-.138-.68-.263-1.019-.4a1.063,1.063,0,0,1-.156-.1,3.47,3.47,0,0,0,.15-.418.905.905,0,0,0-.02-.269.938.938,0,0,0-.343.073.609.609,0,0,0-.16.284c-.078.2-.2.246-.416.207-.492-.086-.99-.139-1.488-.192-.158-.017-.277-.02-.3-.229-.005-.06-.151-.136-.241-.15-.051-.008-.164.089-.172.15-.026.187-.12.217-.292.232-.514.047-1.027.114-1.538.193-.18.028-.295.01-.357-.178a.6.6,0,0,0-.154-.289,1.147,1.147,0,0,0-.351-.119c-.021.09-.078.19-.057.269A3.394,3.394,0,0,0-906.3-211.436Zm5.442-11.581c.363-.14.714-.285,1.072-.41.424-.148.43-.143.7.215.207.27.406.547.6.825a.3.3,0,0,0,.407.075c.026-.012.01-.2-.037-.277-.174-.282-.369-.55-.556-.824-.281-.409-.366-.37.1-.621a1.257,1.257,0,0,0,.215-.137.277.277,0,0,1,.407.021,7.8,7.8,0,0,1,1.553,1.715.3.3,0,0,0,.433.122.449.449,0,0,0-.051-.339c-.448-.544-.889-1.1-1.382-1.6a8.2,8.2,0,0,0-2.57-1.723,7.626,7.626,0,0,0-2.719-.706,10.36,10.36,0,0,0-2.771.128,9.732,9.732,0,0,0-2.247.788,9.225,9.225,0,0,0-3.093,2.538c-.218.272-.4.576-.6.882a.422.422,0,0,0,.6-.139,7.7,7.7,0,0,1,1.513-1.653c.065-.051.181-.114.233-.089.264.13.514.287.781.441a7.1,7.1,0,0,0-.955,1.471.434.434,0,0,0,.574-.177,10.269,10.269,0,0,1,.693-.916.279.279,0,0,1,.227-.1c.449.153.891.325,1.346.5a3.27,3.27,0,0,0-.152.418c-.022.1-.025.28.012.294.151.055.323.071.4-.135.04-.1.092-.2.127-.306.05-.148.156-.155.284-.137.546.074,1.092.149,1.64.212.133.015.213.03.239.193.013.078.142.167.235.194.141.04.228-.055.23-.2,0-.169.105-.174.237-.189.522-.061,1.042-.133,1.562-.209.154-.023.259,0,.319.161a.862.862,0,0,0,.2.35c.073.064.214.051.325.072a.791.791,0,0,0,.02-.246C-900.732-222.693-900.795-222.842-900.855-223.018Z" transform="translate(922.071 235.953)" fill="#407590"/><path d="M-405.637,103.816l.868.653c.048.036.1.067.146.1.431.324.446.435.108.924l-2.26-.865c.078-.383.084-.385.424-.254q.6.229,1.195.448a.438.438,0,0,0,.269.013,1.713,1.713,0,0,0-.151-.137c-.408-.293-.815-.588-1.23-.871-.115-.079-.173-.15-.125-.291s.1-.242.279-.22c.539.065,1.08.115,1.621.171.04,0,.08,0,.167.008-.06-.065-.084-.113-.12-.127-.466-.184-.931-.368-1.4-.539-.145-.052-.225-.115-.172-.276s.146-.159.3-.1c.623.247,1.254.476,1.881.713.071.027.137.065.217.1-.055.156-.1.31-.162.453-.136.3-.389.154-.6.138-.372-.028-.743-.071-1.115-.105C-405.524,103.758-405.547,103.777-405.637,103.816Z" transform="translate(438.681 -79.587)" fill="#407590"/><path d="M-616.414-303.5l-.471,1.8-.361-.1.581-2.39a4.79,4.79,0,0,1,.582.15c.055.021.1.147.1.226.012.426.008.852.013,1.278,0,.08.015.161.023.241l.067.022c.082-.122.172-.24.245-.368.178-.31.356-.62.516-.938.077-.153.145-.241.328-.15.1.047.222.039.313.093a.249.249,0,0,1,.106.205c-.161.658-.333,1.312-.509,1.966-.075.278-.082.276-.415.122l.426-1.792-.074-.029c-.185.328-.373.655-.556.984-.087.156-.158.321-.25.473-.072.118-.1.287-.332.222-.213-.059-.233-.177-.232-.353,0-.46,0-.92,0-1.381,0-.091-.01-.182-.015-.273Z" transform="translate(638.361 306.172)" fill="#407590"/><path d="M-920.371-219.554c.149.244.295.489.446.731s.307.491.47.73c.077.113.1.2-.01.31s-.19.172-.351.079c-.435-.251-.88-.484-1.321-.723-.069-.037-.143-.067-.26-.121l1.258,1.408.078-.037-.238.3-1.823-1.7a4.553,4.553,0,0,1,.4-.409.279.279,0,0,1,.243,0c.388.193.769.4,1.154.6.063.033.132.056.2.083l.061-.056c-.152-.255-.3-.511-.458-.765-.093-.152-.188-.3-.291-.45a.294.294,0,0,1,.046-.461,2.823,2.823,0,0,0,.267-.281c.209.181.412.344.6.521.362.337.714.683,1.074,1.021.1.089.143.162.026.272-.1.093-.17.146-.294.024-.3-.3-.621-.584-.934-.873-.092-.085-.188-.166-.282-.249Z" transform="translate(927.605 226.604)" fill="#407590"/><path d="M-973.311,102.343c.169.029.383.066.415-.257,0-.047.119-.083.183-.124.035.057.071.114.1.172a.072.072,0,0,1,0,.05,1.017,1.017,0,0,0,.172.78,1.177,1.177,0,0,1-.964,1.786c-1,.2-1.447-.495-1.455-1.3a.935.935,0,0,1,.365-.728A1.666,1.666,0,0,1-973.311,102.343Zm.37,1.015c-.262.043-.227-.1-.193-.259.065-.291.03-.337-.257-.338a1.3,1.3,0,0,0-.877.353.729.729,0,0,0,.179,1.163,1.169,1.169,0,0,0,1.433-.582.518.518,0,0,0-.2-.618Z" transform="translate(977.635 -79.154)" fill="#407590"/><path d="M-519.464-260.926c-.245.362-.5.721-.734,1.087-.114.175-.233.185-.363.037a.184.184,0,0,1-.021-.171c.426-.644.86-1.283,1.289-1.919.4.171.419.241.379.675-.045.488-.053.98-.078,1.47l.1.037.926-1.332.305.21c-.191.3-.368.585-.555.864-.217.324-.437.647-.669.961-.054.073-.169.161-.24.149a.3.3,0,0,1-.269-.319c.014-.442.024-.885.034-1.327,0-.13,0-.261,0-.391Z" transform="translate(546.666 266.045)" fill="#407590"/><path d="M-824.677-281.038l-.682-1.437.327-.173c.194.382.382.75.568,1.119.137.273.28.544.4.823.042.095.081.267.035.309a.352.352,0,0,1-.459.076q-.437-.287-.883-.562c-.191-.117-.389-.223-.584-.334l-.061.054.672,1.4c-.3.216-.319.216-.465-.075-.319-.638-.632-1.279-.95-1.924a.465.465,0,0,1,.642-.051c.393.282.822.514,1.237.765a1.007,1.007,0,0,0,.152.061Z" transform="translate(837.129 285.737)" fill="#407590"/><path d="M-717.206-307.949c-.258.129-.411.193-.605-.01a.735.735,0,0,0-1.125.292,1.209,1.209,0,0,0,.17,1.159.8.8,0,0,0,1.2,0,.457.457,0,0,0,.046-.33c-.008-.042-.15-.072-.234-.083a2.73,2.73,0,0,0-.341,0l-.029-.3c.275-.034.528-.064.779-.1.182-.025.242.074.256.234.018.2.051.4.058.607a.273.273,0,0,1-.1.188,1.587,1.587,0,0,1-1.549.316,1.122,1.122,0,0,1-.7-.815,1.372,1.372,0,0,1,.283-1.33,1.281,1.281,0,0,1,1.441-.245C-717.494-308.292-717.374-308.106-717.206-307.949Z" transform="translate(735.325 310.25)" fill="#407590"/><path d="M-660.128-305.822l-1.827-.122c0-.211-.012-.4,0-.594.041-.558.1-1.116.135-1.674.011-.169.075-.224.235-.213.474.033.95.052,1.423.1.059.005.106.13.159.2-.063.047-.128.137-.19.135-.338-.008-.675-.044-1.013-.057a.221.221,0,0,0-.171.1c-.206.428-.1.592.372.6.2,0,.409,0,.613.008.145,0,.251.045.235.223s-.145.13-.249.127c-.289-.006-.579-.013-.868-.025-.14-.006-.21.046-.2.19a.453.453,0,0,1,0,.077c-.055.5-.024.536.493.554.2.007.409,0,.613.006C-660.084-306.186-660.07-306.168-660.128-305.822Z" transform="translate(680.782 310.193)" fill="#407590"/><path d="M-393.237-83.655c.147.187.2.328-.022.518a.638.638,0,0,0,.184.944.3.3,0,0,0,.461-.262c.014-.221.009-.443.005-.665a.808.808,0,0,1,.5-.808.646.646,0,0,1,.783.459,2.22,2.22,0,0,1,.094.918c-.011.144-.2.273-.348.455-.115-.256-.243-.4-.039-.594a.588.588,0,0,0-.148-.792c-.137-.068-.3-.074-.359.111a1.518,1.518,0,0,0-.059.4c-.01.2,0,.392,0,.587a.6.6,0,0,1-.41.59.7.7,0,0,1-.766-.115,1.319,1.319,0,0,1-.375-1.193A.7.7,0,0,1-393.237-83.655Z" transform="translate(426.335 97.224)" fill="#407590"/><path d="M-434.2-174.3c.275.207.314.367.188.6-.16.3.207.823.541.8.168-.011.311-.1.282-.29-.036-.232-.131-.455-.162-.687a1.6,1.6,0,0,1-.007-.716.584.584,0,0,1,.94-.206,1.309,1.309,0,0,1,.548.914c.019.177-.131.372-.22.6-.215-.207-.352-.331-.2-.588.109-.187-.176-.618-.395-.661-.184-.037-.34.071-.311.26a3.485,3.485,0,0,0,.194.679c.2.536.046.94-.462,1.092a.681.681,0,0,1-.5-.063,1.155,1.155,0,0,1-.65-1.1A2.961,2.961,0,0,1-434.2-174.3Z" transform="translate(464.912 183.562)" fill="#407590"/><path d="M-385.483,61.054c-.293.013-.374-.049-.282-.312a6.3,6.3,0,0,0,.173-.869c.044-.223-.125-.266-.271-.286s-.34-.105-.39.147c-.054.273-.112.545-.157.82-.041.249-.085.277-.37.163.054-.29.1-.589.167-.883s.029-.371-.278-.426c-.084-.015-.165-.041-.249-.054a.2.2,0,0,0-.25.189c-.055.317-.1.636-.167.949-.02.089-.118.22-.19.227-.17.015-.161-.131-.141-.256.077-.468.15-.936.235-1.4.028-.155.121-.22.3-.186.656.129,1.313.247,1.972.362.158.027.23.1.2.257C-385.282,60.014-385.383,60.534-385.483,61.054Z" transform="translate(420.774 -38.266)" fill="#407590"/><path d="M-559.975-286.566l1.619.727c-.064.269-.17.319-.389.2-.252-.138-.528-.233-.79-.354-.311-.144-.3.153-.391.29s-.028.253.121.318l.7.311c.258.114.265.14.1.408-.306-.13-.621-.251-.923-.4-.191-.093-.285-.03-.35.144a.228.228,0,0,1-.011.023c-.224.445-.224.444.227.644.248.11.5.219.737.348a.217.217,0,0,1,.062.206.222.222,0,0,1-.2.081c-.446-.188-.884-.393-1.325-.591-.151-.068-.221-.141-.132-.328.277-.582.532-1.176.8-1.764C-560.089-286.384-560.036-286.461-559.975-286.566Z" transform="translate(584.965 289.454)" fill="#407590"/><path d="M-860.47-244.226c-.264.28-.315.3-.6.1a.333.333,0,0,0-.494.019.851.851,0,0,1-.205.15.538.538,0,0,0-.313.775c.084.2-.118.282-.311.376-.068-.251-.132-.483-.195-.716-.15-.556-.3-1.111-.442-1.669a.293.293,0,0,1,.085-.242c.1-.084.192-.239.371-.127q1.015.636,2.033,1.269A.509.509,0,0,1-860.47-244.226Zm-2.033-.817-.076.076c.071.276.137.553.221.825a.193.193,0,0,0,.176.06,2.9,2.9,0,0,0,.428-.32.175.175,0,0,0-.015-.169C-862.008-244.735-862.257-244.887-862.5-245.042Z" transform="translate(871.547 250.587)" fill="#407590"/><path d="M-991.446,63.529a1.217,1.217,0,0,1-.053-.267.177.177,0,0,1,.1-.136c.432-.086.864-.17,1.3-.235.517-.077.732-.393.557-.852-.1-.27-.354-.352-.763-.264-.462.1-.926.191-1.385.285-.181-.318-.122-.435.213-.485.469-.071.934-.163,1.4-.228.65-.09.862.307.934.844a2.314,2.314,0,0,1,.005.307.641.641,0,0,1-.479.7c-.574.142-1.16.235-1.741.347A.312.312,0,0,1-991.446,63.529Z" transform="translate(993.704 -40.608)" fill="#407590"/><path d="M-762.875-292.286c-.256.165-.447.155-.592-.125a.292.292,0,0,0-.427-.143,1.99,1.99,0,0,1-.315.1c-.455.13-.455.13-.5.609-.015.166-.056.19-.393.219,0-.277-.016-.554,0-.829.037-.532.1-1.062.138-1.594a.22.22,0,0,1,.212-.233c.114-.017.292-.039.343.023.515.621,1.009,1.26,1.508,1.894C-762.881-292.351-762.883-292.321-762.875-292.286Zm-1.725-1.5c-.019.357-.039.656-.043.954,0,.034.1.106.141.1.2-.046.4-.113.63-.183A2.313,2.313,0,0,0-764.6-293.787Z" transform="translate(778.64 296.794)" fill="#407590"/><path d="M-991.912,7.23c-.544-.2-1.067-.392-1.589-.585-.231-.085-.465-.164-.687-.269a.309.309,0,0,1-.162-.213c-.005-.121.018-.322.091-.354.771-.347,1.553-.667,2.336-1,.1.378.083.445-.223.551-.252.087-.388.223-.341.5.015.091,0,.187.005.281.037.488-.034.434.429.585C-991.852,6.8-991.834,6.864-991.912,7.23Zm-1.945-1.189a1.839,1.839,0,0,0,.906.37.2.2,0,0,0,.149-.122,1.493,1.493,0,0,0,0-.456c-.01-.057-.14-.15-.185-.135C-993.255,5.787-993.517,5.9-993.857,6.041Z" transform="translate(996.131 13.015)" fill="#407590"/><path d="M-405.947-137.337c.255.368.254.384.031.709-.147.215-.29.434-.47.7.338.041.618.087.9.106.346.023.381.046.447.443a7.6,7.6,0,0,1-1.062-.117,1.573,1.573,0,0,0-1.23.254c-.162.094-.332.133-.388-.119-.013-.061.023-.188.057-.2.83-.194,1.137-.909,1.54-1.528C-406.066-137.167-406.008-137.247-405.947-137.337Z" transform="translate(439.579 147.876)" fill="#407590"/><path d="M-381.753-37.468c.332.149.582.272.839.375.289.115.354.227.274.577a5.817,5.817,0,0,1-.709-.338,2.1,2.1,0,0,0-1.625-.286.913.913,0,0,1-.164,0c-.026-.07-.056-.139-.078-.211-.039-.127,0-.188.143-.2.262-.019.524-.044.782-.089a.687.687,0,0,0,.285-.149c.372-.294.738-.6,1.136-.918.077.259.108.46-.107.625C-381.215-37.9-381.451-37.706-381.753-37.468Z" transform="translate(416.342 54.301)" fill="#407590"/><path d="M-962.078-155.613c.122-.394.148-.412.518-.415.2,0,.393.006.588-.012.235-.021.267-.086.157-.29a4.019,4.019,0,0,0-.288-.482.485.485,0,0,1,.081-.7c.212.388.432.757.617,1.143a1.1,1.1,0,0,0,.535.52c.181.091.354.2.526.294-.129.4-.163.424-.484.2a1.6,1.6,0,0,0-1.391-.279A3.55,3.55,0,0,1-962.078-155.613Z" transform="translate(965.513 167.013)" fill="#407590"/><path d="M-977-108.819c-.578-.212-1.162-.414-1.735-.643-.186-.074-.264-.04-.323.134-.052.151-.115.3-.171.443-.319-.028-.333-.055-.227-.335.162-.429.318-.86.478-1.29.032-.085.07-.168.114-.271l.291.117c-.058.176-.1.345-.17.506s-.011.24.136.294c.485.179.968.364,1.454.542C-976.8-109.192-976.783-109.157-977-108.819Z" transform="translate(982.054 122.682)" fill="#407590"/><path d="M-473.233-228.843l1.2-1.3c.216-.234.214-.255-.013-.466-.075-.07-.145-.144-.215-.218a.557.557,0,0,1-.054-.081c.1-.223.215-.232.384-.068.354.343.724.67,1.075,1.015a.274.274,0,0,1,.051.248c-.062.128-.173.11-.267.009a.362.362,0,0,0-.039-.033c-.4-.323-.4-.326-.755.046-.286.3-.559.617-.846.918C-472.966-228.51-472.993-228.517-473.233-228.843Z" transform="translate(501.732 236.825)" fill="#407590"/><path d="M-378.327,13.885c.266-.09.348-.012.34.224-.014.442-.005.885-.01,1.327a.568.568,0,0,1-.04.247.218.218,0,0,1-.168.1c-.049,0-.119-.082-.132-.139a1.325,1.325,0,0,1-.021-.355c.011-.2-.088-.273-.276-.273-.51,0-1.021,0-1.531-.005-.207,0-.343-.056-.317-.309.016-.154.085-.176.217-.169.576.03,1.151.053,1.727.078.15.006.216-.067.212-.217C-378.33,14.23-378.327,14.061-378.327,13.885Z" transform="translate(413.74 4.442)" fill="#407590"/><path d="M-992.41-34.558c.428.063.9.122,1.366.206.35.063.448,0,.479-.347a6.6,6.6,0,0,1,.093-.7c.012-.061.111-.15.163-.145s.164.1.161.155c-.018.286-.064.569-.1.854q-.026.214-.05.428c-.023.2-.11.294-.338.256-.483-.082-.971-.138-1.456-.208-.158-.023-.314-.066-.473-.084-.118-.013-.228-.014-.215-.178.011-.141.045-.256.226-.235C-992.521-34.554-992.487-34.558-992.41-34.558Z" transform="translate(994.642 51.304)" fill="#407590"/><path d="M-984.156-63.177c.24.057.483.111.724.173.484.124.965.26,1.451.372.172.039.2.124.172.269-.034.186-.169.173-.3.141q-.922-.233-1.84-.479C-984.262-62.785-984.261-62.789-984.156-63.177Z" transform="translate(986.518 77.518)" fill="#407590"/><path d="M-556.982-16.989c.03-.415.055-.83.092-1.244a.858.858,0,0,1,.776-.818,2.336,2.336,0,0,1,.857-.014.966.966,0,0,1,.794.993c.02.806.016,1.613,0,2.42a.963.963,0,0,1-.806.87,1.529,1.529,0,0,1-1.14-.125.832.832,0,0,1-.368-.418c-.115-.544-.171-1.1-.249-1.652Z" transform="translate(581.229 35.701)" fill="#407590"/><path d="M-661.48,138.292l-.761,1.22c-.027.043-.06.083-.087.125-.268.415-.38.463-.853.333a.208.208,0,0,1-.119-.154c-.009-.544-.01-1.088,0-1.632,0-.057.107-.163.158-.16.537.036,1.073.09,1.609.14Z" transform="translate(682.06 -113.368)" fill="#407590"/><path d="M-708.538,138.092a5.024,5.024,0,0,1,1.7-.231c.055,0,.148.113.151.176.019.52.023,1.04.026,1.56a.2.2,0,0,1-.218.224c-.119,0-.237.029-.355.029a.239.239,0,0,1-.174-.061C-707.779,139.242-708.142,138.69-708.538,138.092Z" transform="translate(724.972 -113.207)" fill="#407590"/><path d="M-740.959,146.856a.563.563,0,0,1-.764.026c-.5-.416-1.019-.813-1.528-1.22a1.562,1.562,0,0,1-.159-.2c.443-.145.847-.281,1.255-.4.04-.012.126.042.155.088C-741.654,145.709-741.313,146.274-740.959,146.856Z" transform="translate(758.057 -120.04)" fill="#407590"/><path d="M-637.624,145.633c-.236.229-.456.479-.713.682-.319.253-.668.467-1,.7a.485.485,0,0,1-.671-.067c.123-.189.251-.376.369-.569.214-.348.428-.7.631-1.052a.235.235,0,0,1,.311-.138c.353.117.706.231,1.059.347Z" transform="translate(659.958 -120.149)" fill="#407590"/><path d="M-699.319,185.172a7.5,7.5,0,0,1-3.642.008A3.25,3.25,0,0,1-699.319,185.172Z" transform="translate(719.681 -157.573)" fill="#407590"/><path d="M-619.364,158.33c-.648.62-2.427,1.412-2.748,1.236l2.011-1.667Z" transform="translate(642.977 -132.223)" fill="#407590"/><path d="M-767.407,158.182l.758-.46c.326.3.634.6.967.874s.687.517,1.082.811c-.116.033-.181.075-.23.062A7.742,7.742,0,0,1-767.407,158.182Z" transform="translate(780.823 -132.055)" fill="#407590"/><path d="M-706.519-131.043c0,.255-.005.51,0,.765,0,.15-.049.228-.2.213-.261-.025-.523-.046-.783-.079-.208-.027-.415-.069-.622-.106-.157-.028-.236-.1-.133-.261.317-.492.616-1,.96-1.468.167-.228.444-.11.659-.032.069.025.109.2.118.306.018.22.005.442.005.663Z" transform="translate(724.752 142.919)" fill="#407590"/><path d="M-662.414-130.255c-.321.055-.642.114-.965.164-.109.017-.222,0-.331.017-.391.05-.411.053-.432-.324-.024-.439-.017-.88,0-1.319a.345.345,0,0,1,.152-.266c.183-.067.424-.17.567.032.372.524.712,1.07,1.065,1.607Z" transform="translate(682.867 142.878)" fill="#407590"/><path d="M-641.617-138.039a.546.546,0,0,1,.729-.068,8.5,8.5,0,0,1,1.728,1.4c-.358.141-.678.258-.991.393-.259.111-.4.039-.534-.212C-640.967-137.04-641.3-137.526-641.617-138.039Z" transform="translate(661.482 148.71)" fill="#407590"/><path d="M-742.252-138.282c-.342.569-.673,1.114-1,1.663-.071.119-.139.169-.287.111-.361-.141-.73-.262-1.16-.414.289-.261.52-.5.777-.7.321-.252.658-.486,1-.71C-742.611-138.534-742.563-138.52-742.252-138.282Z" transform="translate(759.278 148.953)" fill="#407590"/><path d="M-700.44-154.075a3.315,3.315,0,0,1-3.623.027A7.926,7.926,0,0,1-700.44-154.075Z" transform="translate(720.727 163.939)" fill="#407590"/><path d="M-768.872-145.552c.41-.25.764-.495,1.145-.689.407-.207.837-.369,1.261-.543.129-.053.276-.116.392.092-.109.078-.222.149-.324.232-.482.389-.97.77-1.436,1.176-.184.16-.323.213-.525.047A4.725,4.725,0,0,0-768.872-145.552Z" transform="translate(782.213 156.887)" fill="#407590"/><path d="M-623.955-146.586a.913.913,0,0,1,.314,0c.627.276,1.252.557,1.87.853a5.312,5.312,0,0,1,.591.391c-.262.161-.479.3-.7.426a.154.154,0,0,1-.134-.03C-622.645-145.47-623.269-146-623.955-146.586Z" transform="translate(644.726 156.662)" fill="#407590"/></g></g></svg>