<svg xmlns="http://www.w3.org/2000/svg" width="36.487" height="31.091" viewBox="0 0 36.487 31.091"><g transform="translate(812.896 83.678)"><g transform="translate(-812.896 -83.678)"><path d="M-812.9-57.151V-83.678h36.487v26.5h-5.678c0-.85-.006-1.669.007-2.488a.56.56,0,0,1,.163-.33,6.309,6.309,0,0,0,1.757-5.454,6.386,6.386,0,0,0-7.7-5.222,6.362,6.362,0,0,0-3.136,10.652c.078.082.183.189.185.285.015.851.008,1.7.008,2.588h-14.325Q-809.011-57.146-812.9-57.151Zm4.311-17.959V-73h27.89V-75.11Zm3.2-4.269v2.1h21.493v-2.1Zm7.157,13.655v-2.1h-10.356v2.1ZM-808.6-61.449h10.361v-2.1H-808.6Z" transform="translate(812.896 83.678)" fill="#fff"/><path d="M-501.762,130.257a4.233,4.233,0,0,1,4.245-4.228,4.233,4.233,0,0,1,4.2,4.237,4.237,4.237,0,0,1-4.245,4.23A4.237,4.237,0,0,1-501.762,130.257Z" transform="translate(523.992 -111.046)" fill="#fff"/><path d="M-469.029,276.07c-.624-.3-1.235-.586-1.828-.9a.683.683,0,0,0-.721-.007c-.593.316-1.2.6-1.841.909v-5.8a16.722,16.722,0,0,0,2.2.279,16.464,16.464,0,0,0,2.192-.275Z" transform="translate(497.675 -244.982)" fill="#fff"/></g></g></svg>