<svg xmlns="http://www.w3.org/2000/svg" width="10.183" height="11.667" viewBox="0 0 10.183 11.667"><g transform="translate(-300.613 -264.177)"><path d="M429.754,325.313v-6.4a.194.194,0,0,0-.194-.194H427.65a.188.188,0,0,0-.188.188v4.475a.383.383,0,0,0,.151.3Z" transform="translate(-126.849 -51.17)" fill="#fff"/><path d="M396.477,276.607V264.963h-4.222a.278.278,0,0,0-.278.278v1.7a.285.285,0,0,0,.285.285h2.789a.312.312,0,0,1,.311.312v8.215Z" transform="translate(-91.365 -0.762)" fill="#fff"/><path d="M300.613,324.941v-6.4a.194.194,0,0,1,.194-.194h1.909a.188.188,0,0,1,.188.188v4.475a.383.383,0,0,1-.151.3Z" transform="translate(7.891 -50.821)" fill="#fff"/><path d="M300.613,276.234V264.59h4.221a.278.278,0,0,1,.278.278v1.7a.285.285,0,0,1-.285.285h-2.789a.312.312,0,0,0-.312.312v8.215Z" transform="translate(5.684 -0.412)" fill="#fff"/></g></svg>